<?xml version="1.0" standalone="no"?>
<!DOCTYPE svg PUBLIC "-//W3C//DTD SVG 20010904//EN"
 "http://www.w3.org/TR/2001/REC-SVG-20010904/DTD/svg10.dtd">
<svg version="1.0" xmlns="http://www.w3.org/2000/svg"
 width="900.000000pt" height="438.000000pt" viewBox="0 0 900.000000 438.000000"
 preserveAspectRatio="xMidYMid meet">
<metadata>
Created by potrace 1.10, written by Peter Selinger 2001-2011
</metadata>
<g transform="translate(0.000000,438.000000) scale(0.100000,-0.100000)"
fill="#123bad" stroke="none">
<path d="M200 4068 c0 -2 -1 -771 -3 -1711 -2 -1512 0 -1707 13 -1707 8 0 25
17 38 38 13 20 48 63 78 95 l54 57 0 1613 0 1612 -90 3 c-49 1 -90 1 -90 0z
m100 -342 c0 -93 -4 -157 -10 -161 -7 -4 -10 50 -10 154 0 101 4 161 10 161 6
0 10 -58 10 -154z m0 -256 c0 -27 -4 -52 -10 -55 -6 -4 -10 17 -10 55 0 38 4
59 10 55 6 -3 10 -28 10 -55z m0 -405 c0 -132 -4 -216 -10 -220 -7 -4 -10 72
-10 220 0 148 3 224 10 220 6 -4 10 -88 10 -220z m0 -300 c0 -19 -4 -37 -10
-40 -6 -4 -10 12 -10 40 0 28 4 44 10 40 6 -3 10 -21 10 -40z m-3 -182 c-4
-17 -4 -17 -12 0 -4 9 -4 25 0 35 8 16 8 16 12 0 3 -10 3 -26 0 -35z m3 -319
c0 -134 -3 -203 -10 -199 -6 4 -10 85 -10 211 0 134 3 203 10 199 6 -4 10 -85
10 -211z m-9 -317 c-8 -8 -11 -4 -11 14 0 33 14 47 18 19 2 -12 -1 -27 -7 -33z
m0 -180 c-8 -8 -11 1 -11 29 0 53 14 67 18 19 2 -21 -1 -42 -7 -48z m9 -202
c0 -92 -4 -156 -10 -160 -7 -4 -10 52 -10 160 0 108 3 164 10 160 6 -4 10 -68
10 -160z m0 -261 c0 -14 -4 -22 -10 -19 -5 3 -10 17 -10 31 0 14 4 22 10 19 6
-3 10 -17 10 -31z m0 -106 c0 -5 -4 -8 -10 -8 -5 0 -10 10 -10 23 0 18 2 19
10 7 5 -8 10 -18 10 -22z m-7 -131 c3 -8 1 -20 -4 -28 -6 -10 -9 -7 -9 14 0
29 5 35 13 14z"/>
<path d="M480 4068 c-2 -89 1 -3142 3 -3144 2 -2 30 24 63 59 32 34 74 74 92
88 l33 26 -1 1303 c0 717 -4 1309 -8 1316 -5 9 -12 9 -27 -4 -43 -35 -45 -80
-46 -1009 0 -752 -2 -883 -14 -883 -12 0 -14 44 -15 263 -1 144 -4 602 -8
1017 -4 415 -6 769 -4 785 3 20 12 34 29 42 19 9 22 9 14 -1 -12 -14 4 -36 25
-36 6 0 17 -7 24 -15 21 -25 27 -6 35 98 l7 97 -101 0 c-56 0 -101 -1 -101 -2z
m105 -2514 c0 -143 -4 -231 -10 -234 -6 -3 -12 50 -15 145 -7 197 -1 327 14
322 8 -3 11 -72 11 -233z m3 -340 c-2 -27 -7 -49 -13 -49 -11 0 -19 79 -10
103 11 30 26 -5 23 -54z"/>
<path d="M767 4063 c-4 -3 -4 -25 -1 -47 16 -121 18 -125 46 -76 22 39 60 40
94 3 13 -14 26 -24 29 -21 9 9 26 120 21 134 -4 11 -27 14 -94 14 -49 0 -92
-3 -95 -7z"/>
<path d="M1046 4062 c-6 -10 8 -120 17 -129 4 -3 17 3 30 15 29 28 67 28 101
1 16 -12 31 -18 36 -13 4 5 10 36 12 69 l3 60 -97 3 c-53 1 -99 -1 -102 -6z"/>
<path d="M1336 4061 c-6 -9 10 -116 19 -131 4 -6 19 3 35 20 31 33 42 32 93
-9 9 -8 19 -12 22 -9 9 8 25 120 19 129 -3 5 -45 9 -94 9 -49 0 -91 -4 -94 -9z"/>
<path d="M1616 4061 c-9 -13 5 -120 15 -127 5 -3 16 2 25 10 31 32 54 38 85
25 17 -6 35 -21 40 -31 17 -31 28 -9 31 62 l3 65 -97 3 c-54 1 -99 -1 -102 -7z"/>
<path d="M1906 4061 c-6 -8 12 -132 20 -140 2 -3 19 10 37 27 18 18 37 32 41
32 4 0 21 -14 37 -31 16 -18 32 -29 35 -26 8 8 24 129 18 139 -7 11 -181 10
-188 -1z"/>
<path d="M2185 3998 c3 -40 9 -76 12 -81 3 -5 13 5 23 21 25 40 63 46 100 16
47 -40 57 -30 62 66 l3 45 -104 3 -104 3 8 -73z"/>
<path d="M2475 4061 c-3 -6 -3 -28 0 -48 17 -104 23 -113 43 -68 18 40 86 32
103 -11 19 -52 36 -18 42 86 l2 45 -92 3 c-54 2 -94 -1 -98 -7z"/>
<path d="M2755 3993 c9 -118 12 -125 34 -111 11 7 24 22 30 34 7 16 16 20 34
17 20 -4 29 -17 44 -56 35 -96 50 -70 55 93 l3 95 -103 3 -104 3 7 -78z"/>
<path d="M3046 3948 c10 -243 20 -282 53 -208 15 32 21 66 21 118 0 39 4 72 9
72 21 0 31 -32 30 -96 -1 -38 4 -130 11 -205 11 -110 11 -179 2 -370 -18 -349
-17 -396 6 -454 10 -27 24 -51 29 -52 19 -7 23 103 23 707 l1 605 -95 3 -95 3
5 -123z"/>
<path d="M3328 3413 c1 -362 5 -664 7 -671 4 -10 9 -10 23 -1 23 14 46 96 37
132 -4 14 -4 31 0 36 3 6 8 127 11 268 3 142 7 260 9 262 2 1 8 0 14 -4 15 -8
15 -491 1 -500 -12 -8 -13 -40 -1 -63 5 -9 15 -48 21 -87 15 -84 46 -163 60
-149 6 6 10 288 10 719 l1 710 -98 3 -98 3 3 -658z m112 449 c-1 -18 -23 -52
-34 -52 -6 0 -1 34 10 68 5 18 24 5 24 -16z m-5 -167 c0 -46 -4 -70 -12 -72
-10 -4 -13 15 -13 72 0 57 3 76 13 73 8 -3 12 -27 12 -73z m3 -159 c2 -27 -1
-53 -7 -59 -15 -15 -18 -9 -24 56 -5 51 -4 58 11 55 13 -2 18 -16 20 -52z"/>
<path d="M3620 4063 c0 -4 0 -415 0 -913 l0 -905 30 1 c83 1 126 5 138 12 9 7
12 197 12 908 l1 899 -91 3 c-49 1 -90 -1 -90 -5z m107 -852 c0 -369 -4 -671
-9 -671 -12 0 -10 -28 3 -32 6 -2 8 -14 4 -31 -14 -54 -30 -22 -31 60 0 44 -4
85 -8 92 -5 7 -5 24 -1 39 3 14 6 301 6 636 0 466 3 612 12 618 8 5 14 -1 18
-16 4 -13 6 -326 6 -695z m3 -816 c0 -25 -23 -35 -35 -15 -10 16 2 40 20 40 9
0 15 -9 15 -25z"/>
<path d="M3900 4068 c0 -2 -1 -407 -3 -901 l-2 -897 30 0 c37 0 156 17 161 23
2 2 4 402 5 888 l0 884 -96 3 c-52 1 -95 1 -95 0z m100 -208 c0 -73 -17 -80
-22 -9 -2 42 5 69 19 69 2 0 3 -27 3 -60z m0 -120 c0 -16 -4 -30 -10 -30 -5 0
-10 14 -10 30 0 17 5 30 10 30 6 0 10 -13 10 -30z m5 -61 c9 -14 -3 -59 -15
-59 -5 0 -12 11 -16 24 -6 26 1 46 16 46 5 0 12 -5 15 -11z m-5 -194 c0 -63
-4 -105 -10 -105 -6 0 -10 42 -10 105 0 63 4 105 10 105 6 0 10 -42 10 -105z
m2 -152 c6 -28 -3 -133 -12 -133 -15 0 -20 31 -13 90 6 59 17 77 25 43z m-2
-178 c0 -8 -4 -15 -10 -15 -5 0 -10 7 -10 15 0 8 5 15 10 15 6 0 10 -7 10 -15z
m0 -392 c0 -215 -4 -343 -9 -337 -6 5 -10 120 -11 259 -2 375 -1 425 10 425 6
0 10 -122 10 -347z"/>
<path d="M4177 4063 c-3 -5 -1 -29 4 -53 9 -44 8 -1642 -2 -1685 -4 -19 2 -20
94 -23 l98 -3 -3 173 c-2 95 -2 493 0 883 l3 710 -95 3 c-52 1 -97 -1 -99 -5z
m109 -131 c8 -12 12 -165 13 -497 1 -264 3 -554 6 -645 7 -261 5 -300 -14
-338 -35 -67 -32 -131 -31 866 1 347 4 632 8 632 4 0 12 -8 18 -18z"/>
<path d="M4465 3988 c7 -82 13 -105 22 -80 10 28 56 72 74 72 11 0 34 -7 51
-16 38 -20 45 -12 50 51 l3 50 -104 3 -103 3 7 -83z"/>
<path d="M4754 4055 c-6 -14 14 -115 22 -115 2 0 13 9 24 20 28 28 66 25 96
-7 13 -14 27 -23 30 -20 4 3 9 35 11 71 l6 66 -92 0 c-72 0 -93 -3 -97 -15z"/>
<path d="M5035 4003 c4 -38 9 -70 11 -72 2 -3 17 8 32 22 34 32 65 34 100 7
16 -14 29 -17 35 -11 11 11 27 102 20 114 -2 4 -49 7 -105 7 l-100 0 7 -67z"/>
<path d="M5320 4043 c1 -33 16 -102 24 -111 4 -3 16 5 27 17 29 31 68 24 95
-17 13 -18 25 -28 29 -23 8 14 24 144 18 154 -2 4 -47 7 -99 7 l-94 0 0 -27z"/>
<path d="M5605 3993 c4 -43 9 -82 12 -86 3 -5 18 7 34 26 22 27 34 33 53 30
14 -3 31 -11 37 -19 6 -8 15 -14 20 -14 14 0 37 53 40 95 l4 40 -104 3 -103 3
7 -78z"/>
<path d="M5885 4060 c-8 -13 24 -120 36 -120 5 0 9 4 9 10 0 5 11 17 25 26 21
14 30 14 54 4 16 -6 33 -21 39 -33 10 -22 10 -22 21 6 6 16 11 48 11 73 l0 44
-94 0 c-52 0 -98 -4 -101 -10z"/>
<path d="M6174 4003 c4 -37 9 -70 12 -72 3 -3 17 9 31 27 22 29 29 32 57 26
17 -3 39 -13 49 -22 13 -11 20 -13 28 -5 13 13 30 94 23 105 -3 5 -51 8 -106
8 l-101 0 7 -67z"/>
<path d="M6457 4062 c-6 -8 15 -98 25 -107 4 -4 20 3 36 15 34 25 61 21 92
-13 11 -11 22 -18 25 -15 3 2 8 32 11 66 l7 62 -96 0 c-53 0 -98 -3 -100 -8z"/>
<path d="M6740 4038 c0 -52 12 -108 22 -108 5 0 18 10 27 22 17 20 21 20 50 9
20 -9 33 -22 37 -40 3 -14 10 -37 15 -50 13 -33 -4 -50 -28 -29 -31 26 -104
59 -116 51 -6 -4 -227 -8 -492 -9 l-480 -1 -12 -114 c-6 -63 -12 -144 -12
-181 l-1 -68 -40 -25 c-22 -14 -47 -25 -57 -25 -9 0 -31 -13 -48 -29 -32 -31
-139 -91 -162 -91 -18 0 -33 41 -22 62 5 9 9 38 10 65 0 26 4 66 8 88 l7 40 6
-55 c7 -70 25 -117 39 -103 6 6 12 58 14 117 3 101 4 107 29 127 14 11 36 19
48 17 22 -3 23 -8 26 -100 1 -54 7 -98 12 -98 11 0 30 89 30 144 0 38 3 45 25
50 13 3 29 16 36 27 12 24 3 41 -11 19 -7 -11 -30 -15 -87 -16 -94 -1 -145
-18 -191 -63 l-35 -34 5 -139 5 -140 -25 -9 c-18 -7 -31 -5 -48 6 -23 15 -24
19 -24 161 0 157 5 177 57 226 50 48 90 58 233 58 139 0 153 6 108 45 -22 19
-40 20 -368 22 -190 0 -388 4 -440 7 -325 20 -404 14 -421 -32 -14 -37 6 -85
51 -122 21 -17 50 -41 63 -53 l26 -22 4 -472 c2 -259 1 -476 -2 -482 -9 -13
-57 -31 -86 -31 -14 0 -38 -15 -60 -37 -44 -46 -46 -83 -6 -123 27 -27 34 -29
112 -30 46 0 107 1 136 2 28 2 54 1 57 -2 3 -3 1 -31 -3 -63 -5 -38 -4 -60 3
-65 6 -4 47 -7 91 -7 l80 1 1 65 c1 35 2 72 3 81 1 19 50 33 82 23 20 -7 21
-12 16 -74 -4 -36 -3 -70 1 -76 4 -6 45 -9 100 -7 l92 3 0 59 c0 32 -4 62 -10
65 -18 11 -10 22 29 39 68 31 76 23 76 -74 l0 -85 94 -2 94 -2 -5 89 c-6 98
-5 100 56 100 48 0 53 -11 44 -92 -5 -39 -6 -78 -4 -85 4 -11 27 -13 98 -11
l93 3 3 42 c7 90 -31 145 -60 86 -20 -42 -49 -41 -70 3 l-16 36 34 30 c20 18
34 39 34 54 0 35 -62 89 -118 104 -26 6 -54 16 -62 21 -16 10 -50 26 -90 41
-58 23 -55 13 -52 179 3 135 6 157 23 175 23 25 24 34 4 34 -9 0 -28 -12 -42
-27 l-26 -28 5 -150 c3 -82 3 -156 1 -162 -7 -19 -37 -16 -56 5 -14 16 -17 44
-17 190 0 189 -1 186 71 222 31 17 43 18 64 8 14 -6 25 -19 25 -30 0 -13 7
-18 25 -18 24 0 109 -73 131 -112 10 -18 104 -101 132 -117 15 -9 17 -32 17
-198 l0 -188 25 2 c14 1 39 5 55 8 24 5 35 2 51 -17 20 -22 21 -28 11 -101 -5
-45 -6 -82 -1 -87 5 -4 47 -10 94 -12 l85 -3 1 100 c0 55 4 106 8 113 10 16
85 16 88 0 1 -7 2 -58 2 -113 l1 -100 25 2 c14 2 57 4 95 5 l70 3 -1 100 c-2
108 1 115 52 115 51 0 63 -17 55 -80 -4 -31 -6 -73 -6 -95 l0 -40 90 0 90 0
-2 103 c-1 99 -1 102 22 108 12 3 36 4 51 2 l29 -3 0 -104 0 -105 88 -1 c49 0
93 3 99 6 13 8 2 148 -14 166 -11 14 -38 6 -38 -11 0 -13 -41 -56 -53 -56 -4
0 -7 15 -7 34 0 26 -5 36 -20 41 -38 12 -9 25 54 25 77 0 126 15 126 39 0 23
-69 95 -111 116 -19 10 -57 35 -86 56 -29 22 -55 39 -58 39 -3 0 -27 20 -53
45 -26 24 -94 79 -152 121 -58 43 -125 97 -149 121 -25 24 -50 43 -56 43 -5 0
-23 12 -39 26 -37 35 -114 94 -122 94 -4 0 -30 24 -58 53 -37 39 -62 56 -89
61 -30 6 -37 11 -37 29 0 26 26 67 42 67 11 0 66 22 111 46 16 8 37 14 47 14
9 0 23 7 30 15 7 8 18 15 26 15 7 0 30 7 51 16 21 9 54 24 73 32 64 28 105 45
135 57 17 7 48 20 70 30 22 9 54 23 70 29 56 23 100 43 136 60 83 40 150 -8
74 -53 -20 -11 -42 -21 -48 -21 -7 0 -23 -8 -37 -17 -13 -9 -35 -17 -49 -17
-13 -1 -26 -7 -29 -15 -4 -11 3 -12 32 -7 26 5 36 3 36 -6 1 -7 1 -161 1 -343
1 -332 6 -435 23 -436 6 0 18 21 29 48 16 42 19 76 19 280 -1 128 -3 237 -7
243 -3 5 -1 28 6 50 10 31 10 46 0 67 -15 34 3 58 23 31 17 -23 26 -23 26 2 0
10 -7 23 -17 28 -11 7 -14 15 -8 28 7 17 9 16 21 -11 7 -16 13 -54 14 -82 0
-47 -2 -53 -21 -53 -17 0 -20 -4 -15 -22 3 -13 6 -27 6 -32 0 -5 7 -3 14 4 13
10 15 -23 15 -254 1 -230 -1 -266 -14 -266 -19 0 -19 -10 0 -24 8 -6 21 -44
29 -85 16 -81 32 -109 40 -70 3 13 7 305 10 649 2 344 5 634 7 645 4 19 -2 20
-98 23 l-103 3 0 -33z m-544 -239 c172 1 189 -3 177 -47 -3 -12 -12 -22 -20
-22 -17 0 -68 -27 -98 -51 -11 -9 -45 -22 -75 -30 -30 -7 -64 -20 -75 -29 -11
-9 -34 -22 -52 -29 -17 -7 -57 -39 -87 -71 -49 -51 -56 -64 -56 -98 0 -52 40
-106 157 -212 15 -14 40 -29 55 -35 29 -11 67 -40 167 -128 36 -32 81 -71 99
-87 18 -15 58 -43 87 -61 30 -18 57 -39 60 -47 16 -43 -56 -83 -150 -83 -33 0
-79 -1 -102 -2 -32 -1 -47 4 -58 18 -13 18 -17 17 -14 -2 5 -22 -282 -41 -318
-22 -13 7 -23 17 -23 22 0 5 -11 23 -25 39 -20 23 -25 37 -20 59 7 31 -2 52
-51 116 -19 25 -34 51 -34 59 0 8 -5 14 -12 14 -6 0 -39 28 -72 63 -136 141
-144 157 -94 178 39 16 110 62 128 84 7 8 19 15 26 15 7 0 31 24 53 54 36 49
41 63 56 162 18 125 29 154 61 154 12 0 35 7 50 15 19 10 41 13 64 9 19 -3
108 -6 196 -5z m-1201 -11 c95 4 221 0 229 -8 6 -6 5 -37 -2 -87 -25 -165 -9
-326 38 -368 27 -24 25 -57 -5 -93 -47 -57 -58 -97 -61 -241 -2 -104 1 -142
12 -164 9 -15 14 -38 12 -50 -4 -28 -37 -35 -198 -42 -69 -3 -143 -9 -165 -15
-60 -14 -95 -13 -95 5 0 8 -17 23 -37 32 -43 21 -51 41 -30 83 8 16 11 30 6
32 -5 2 -11 153 -13 343 -5 384 -7 409 -29 454 -25 49 -31 95 -15 109 19 15
103 21 228 14 58 -2 114 -4 125 -4z m1856 -1119 c32 -17 59 -53 47 -63 -1 -2
-247 -6 -545 -9 -581 -6 -600 -5 -551 39 22 20 38 22 318 29 162 4 347 10 410
14 235 13 279 11 321 -10z m-1195 -24 c4 -8 12 -15 20 -15 19 0 18 -19 -3 -42
-14 -16 -34 -18 -182 -19 -91 0 -188 -5 -216 -10 -27 -6 -129 -14 -225 -19
-96 -5 -215 -14 -265 -19 -49 -5 -132 -10 -182 -10 -91 -1 -93 0 -93 22 0 42
42 67 113 67 34 1 107 5 162 10 55 6 213 15 350 21 210 9 423 21 498 27 10 1
20 -5 23 -13z m956 -90 c6 -6 -46 -65 -56 -65 -3 0 -6 9 -6 19 0 11 -9 23 -20
26 -11 4 -18 11 -15 16 6 10 88 13 97 4z m-338 -27 c3 -13 6 -31 6 -41 0 -15
-3 -16 -20 -7 -13 7 -20 21 -20 40 0 36 25 41 34 8z m-820 -4 c13 -5 12 -9 -8
-25 -13 -10 -28 -19 -34 -19 -14 0 -43 36 -35 43 8 9 56 9 77 1z m550 -3 c9
-13 -4 -41 -19 -41 -16 0 -47 35 -38 43 10 10 51 8 57 -2z m-829 -36 c0 -13
-49 -19 -83 -10 -21 5 -23 8 -11 16 18 12 94 7 94 -6z m-297 -32 c2 -9 -8 -13
-32 -13 -34 0 -52 11 -39 24 11 11 66 2 71 -11z"/>
<path d="M7025 4060 c-3 -6 -3 -19 0 -30 3 -11 7 -391 8 -845 1 -540 5 -826
12 -827 6 -2 46 -3 90 -3 l80 0 3 858 2 857 -94 0 c-53 0 -98 -4 -101 -10z
m115 -165 c7 -9 9 -22 5 -32 -5 -10 -7 -46 -6 -80 4 -81 -14 -82 -23 -2 -12
121 -6 150 24 114z m0 -290 c0 -37 -4 -65 -10 -65 -6 0 -10 28 -10 65 0 37 4
65 10 65 6 0 10 -28 10 -65z m0 -135 c0 -11 -4 -20 -10 -20 -5 0 -10 9 -10 20
0 11 5 20 10 20 6 0 10 -9 10 -20z m0 -186 c0 -54 -4 -83 -10 -79 -5 3 -10 42
-10 86 0 46 4 79 10 79 6 0 10 -35 10 -86z m0 -244 c0 -60 -4 -100 -10 -100
-11 0 -14 182 -3 193 12 13 13 7 13 -93z m-4 -196 c-5 -13 -10 -14 -18 -6 -6
6 -8 18 -4 28 5 13 10 14 18 6 6 -6 8 -18 4 -28z m10 -215 c-1 -54 -5 -102 -9
-105 -11 -12 -46 40 -47 68 0 25 16 116 26 147 3 10 7 11 19 1 11 -9 13 -34
11 -111z"/>
<path d="M7316 3213 l2 -858 83 0 c46 -1 89 3 95 7 12 9 10 57 -8 211 -9 74
-8 124 1 210 7 70 12 329 14 700 l2 587 -95 0 -95 0 1 -857z m104 314 c1 -322
-2 -385 -14 -402 -13 -18 -15 22 -15 351 0 204 -3 378 -7 387 -6 17 11 47 26
47 5 0 9 -172 10 -383z m-2 -522 c0 -77 -9 -100 -27 -67 -9 17 -6 105 5 140
10 34 22 -5 22 -73z m2 -136 c7 -11 9 -32 6 -45 -4 -13 1 -41 10 -63 19 -47
15 -124 -12 -219 -33 -120 -39 -63 -34 311 0 41 13 48 30 16z"/>
<path d="M7600 4063 c-4 -64 4 -1131 8 -1163 4 -25 11 -44 17 -43 5 1 18 32
28 70 17 60 19 104 17 389 -1 281 1 322 15 334 14 12 14 15 0 30 -23 26 -18
173 7 189 17 11 18 -8 18 -411 0 -428 4 -481 39 -547 33 -60 36 -10 39 579 l3
580 -95 0 c-53 0 -96 -3 -96 -7z"/>
<path d="M7880 3562 c0 -504 5 -662 21 -662 9 0 34 52 50 105 6 17 10 180 9
364 l0 334 20 -18 c18 -16 19 -20 5 -35 -19 -21 -19 -39 1 -61 14 -16 15 -21
1 -48 -13 -26 -13 -32 -1 -42 11 -9 14 -44 14 -153 1 -282 25 -485 54 -456 12
12 14 102 18 758 l3 422 -97 0 -98 0 0 -508z m118 265 c2 -70 0 -87 -11 -87
-18 0 -27 30 -27 90 0 121 34 118 38 -3z"/>
<path d="M8168 4063 c-7 -17 9 -1220 16 -1240 11 -31 24 -29 38 5 12 30 14 55
18 255 3 100 7 141 17 149 11 9 11 14 0 27 -21 25 -23 188 -3 210 15 16 15 19
1 31 -8 7 -15 20 -15 30 0 10 7 23 15 30 14 12 14 15 0 30 -19 21 -19 44 0 60
11 9 12 16 2 31 -9 14 -9 21 1 31 6 6 13 21 14 33 3 28 20 -857 20 -1083 1
-192 -4 -218 -40 -196 -9 6 -22 26 -28 45 -12 36 -28 48 -37 26 -10 -28 -20
-177 -11 -178 5 0 47 -1 94 -2 l85 -1 3 857 2 857 -94 0 c-52 0 -96 -3 -98 -7z
m105 -221 c-7 -50 -26 -52 -31 -3 -3 33 15 68 29 54 4 -4 5 -27 2 -51z"/>
<path d="M8451 3215 c1 -470 5 -858 10 -861 4 -2 47 -6 94 -9 74 -3 86 -1 95
14 5 10 7 21 4 23 -5 5 -6 1624 -1 1663 2 19 -5 20 -101 23 l-102 3 1 -856z"/>
<path d="M740 3852 c-19 -7 -43 -16 -52 -19 -35 -11 -20 -47 39 -93 67 -53 63
-51 136 -86 l57 -27 0 -961 c0 -804 -3 -971 -15 -1021 -20 -83 -20 -214 1
-243 24 -34 10 -62 -31 -62 -31 0 -35 4 -44 38 -7 23 -12 438 -14 1117 -2 594
-8 1092 -12 1108 -11 42 -22 32 -29 -26 -4 -37 -9 -2047 -6 -2384 0 -21 17
-15 52 17 18 17 51 43 73 58 52 35 56 41 49 78 -5 29 -2 33 39 58 59 34 81 34
73 1 -6 -24 -3 -23 68 20 40 25 78 45 84 45 21 0 33 31 35 93 2 66 22 107 54
107 7 0 13 5 13 10 0 6 9 10 19 10 20 0 21 -5 6 -100 -8 -52 8 -56 72 -18 33
19 71 38 86 42 27 6 27 7 27 99 1 116 19 144 89 138 11 -1 13 -16 8 -76 -4
-45 -3 -76 3 -80 6 -4 41 8 78 26 37 17 78 35 92 39 24 6 25 9 25 98 0 50 5
95 10 101 6 5 26 11 45 13 l35 3 0 -72 c0 -40 5 -76 10 -82 7 -6 22 -4 45 6
19 9 55 23 80 32 l45 16 0 81 c0 64 4 86 18 101 22 25 22 52 0 68 -14 11 -16
44 -14 326 1 173 6 318 10 322 5 5 26 7 47 5 l39 -3 0 -427 c1 -235 4 -430 7
-434 4 -3 17 1 30 10 12 9 29 16 36 16 8 0 28 6 45 14 18 8 42 16 55 18 l24 3
1 430 2 430 48 3 48 3 -2 -418 c-1 -289 2 -418 9 -421 6 -2 21 2 34 9 13 7 48
18 78 24 l55 11 5 429 c3 237 9 436 13 443 5 6 16 12 26 12 9 0 23 6 29 12 29
29 32 -21 31 -437 -1 -238 2 -420 7 -422 5 -1 50 8 99 21 l90 24 -3 46 c-7 95
-34 132 -57 79 -7 -17 -15 -21 -30 -17 -25 8 -32 19 -45 69 -6 22 -16 51 -22
65 -5 14 -12 63 -15 110 -4 71 0 98 21 169 14 47 26 92 26 102 0 9 7 19 15 23
17 6 21 36 5 36 -16 0 -12 46 5 60 17 14 18 13 34 -75 13 -67 25 -85 44 -67 8
9 14 64 17 173 l5 159 39 35 c22 19 45 35 51 35 7 0 10 -47 7 -160 -3 -87 -1
-176 3 -197 l7 -38 19 23 c10 13 21 40 25 60 4 20 11 42 16 49 6 7 6 18 0 28
-5 9 -6 37 -2 62 7 41 -5 102 -23 119 -4 4 -7 15 -7 25 0 10 -8 23 -17 28 -17
10 -17 12 0 25 9 7 17 18 17 23 0 6 7 16 15 23 8 7 15 23 15 35 0 13 7 25 15
29 12 4 15 23 14 83 0 80 -12 132 -22 103 -3 -8 -8 -46 -12 -85 -3 -38 -13
-77 -21 -86 -7 -8 -14 -23 -14 -32 0 -31 -214 -227 -248 -227 -5 0 -15 -7 -22
-15 -7 -8 -23 -15 -37 -15 -13 0 -26 -7 -29 -15 -4 -8 -18 -15 -34 -15 -15 0
-33 -7 -40 -15 -7 -8 -22 -15 -34 -15 -12 0 -31 -7 -42 -15 -10 -8 -33 -15
-50 -15 -16 0 -39 -7 -50 -15 -10 -8 -37 -15 -59 -15 -22 0 -51 -7 -65 -15
-14 -8 -41 -14 -61 -15 -20 0 -56 -7 -79 -15 -23 -8 -66 -15 -94 -15 -28 -1
-69 -7 -91 -15 -24 -9 -78 -15 -136 -15 -71 0 -100 -4 -108 -14 -9 -11 -11
-83 -9 -265 3 -278 4 -274 -59 -243 l-36 17 1 270 c1 149 2 276 2 283 0 8 21
12 73 12 41 0 96 7 123 15 27 8 65 15 85 15 20 0 58 7 85 15 27 8 60 15 74 15
14 0 45 6 70 14 53 17 120 34 175 46 42 8 87 23 143 46 18 8 41 14 50 14 10 0
27 7 38 15 10 8 29 15 40 15 12 0 27 7 34 15 7 8 19 15 26 15 14 0 65 26 119
61 17 10 40 23 52 28 35 16 136 122 162 171 21 38 25 61 27 147 3 81 0 102
-11 107 -8 3 -15 12 -15 20 0 17 -147 156 -165 156 -7 0 -28 8 -47 17 -57 28
-63 30 -108 38 -25 4 -55 13 -67 21 -32 20 -1869 26 -1923 6z m848 -77 c40 -7
55 -26 32 -40 -5 -3 -7 -18 -4 -34 3 -15 -1 -43 -9 -63 -10 -23 -13 -49 -8
-74 3 -22 6 -140 4 -264 -2 -236 -1 -238 48 -300 42 -53 47 -86 16 -118 -13
-15 -33 -43 -43 -62 -21 -41 -36 -144 -25 -174 4 -12 4 -57 1 -101 -4 -44 -3
-85 2 -91 5 -7 3 -32 -4 -59 -11 -42 -11 -48 5 -56 11 -7 17 -22 17 -48 0 -30
7 -43 35 -68 47 -42 45 -64 -7 -91 -24 -13 -54 -29 -68 -37 -14 -8 -79 -43
-144 -77 -168 -89 -206 -112 -378 -234 -70 -49 -66 -87 -68 714 -1 394 -3 807
-4 918 l-1 201 -32 36 c-33 37 -53 101 -37 117 5 5 50 10 99 12 156 5 528 0
573 -7z m847 -7 c19 -9 28 -9 37 0 13 13 110 17 121 5 15 -14 113 -43 147 -43
45 0 113 -43 187 -118 56 -57 72 -105 59 -175 -9 -46 -134 -172 -201 -202 -28
-13 -56 -30 -63 -38 -7 -8 -25 -18 -40 -22 -14 -3 -55 -21 -91 -38 -42 -20
-85 -32 -123 -35 -58 -4 -58 -4 -58 23 0 19 13 40 40 67 25 26 42 53 46 76 4
21 14 44 23 53 13 12 17 33 16 91 0 64 -5 83 -35 142 -27 54 -45 75 -80 97
-52 32 -75 63 -75 102 -1 24 3 27 32 27 17 0 44 -5 58 -12z m-385 -79 c182
-15 293 -50 311 -97 5 -12 17 -25 26 -29 10 -3 28 -15 41 -26 19 -18 22 -30
22 -103 0 -46 -4 -85 -9 -88 -5 -3 -12 -22 -15 -41 -12 -62 -152 -195 -205
-195 -11 0 -24 -6 -28 -13 -16 -26 -133 -63 -248 -78 -77 -10 -223 -5 -237 9
-7 7 -14 558 -9 671 1 14 90 12 351 -10z m530 -944 c0 -16 -6 -25 -15 -25 -16
0 -19 9 -9 34 9 25 24 19 24 -9z m-678 0 c10 -4 12 -47 10 -213 -3 -202 3
-273 23 -273 6 0 15 19 21 42 7 28 18 46 32 52 28 13 28 19 -3 55 -24 29 -24
30 -9 75 14 43 14 48 -2 76 -16 28 -16 31 -1 55 9 14 17 34 17 46 0 11 4 20
10 20 12 0 19 -31 20 -85 0 -22 1 -53 1 -70 0 -16 -1 -64 -3 -105 -4 -75 21
-209 44 -237 14 -17 -19 -30 -35 -14 -6 6 -22 11 -35 11 -27 0 -114 26 -151
45 l-24 13 2 248 c1 137 5 252 7 256 6 9 55 11 76 3z m102 -11 c24 -9 9 -24
-25 -24 -19 0 -29 5 -29 15 0 15 26 20 54 9z m294 -20 c12 -56 13 -96 2 -109
-17 -20 -31 -9 -28 23 1 15 -2 37 -6 50 -9 27 1 65 16 60 6 -2 13 -13 16 -24z
m293 -290 c-1 -230 -7 -282 -28 -260 -9 8 -15 515 -6 529 3 5 12 2 20 -6 12
-12 14 -57 14 -263z m-284 -93 c-2 -223 -7 -265 -31 -241 -11 11 -11 463 0
482 3 5 12 4 20 -3 11 -9 13 -55 11 -238z m-283 -211 c19 -7 26 -17 26 -35 0
-21 -5 -25 -29 -25 -16 0 -34 -7 -41 -15 -7 -8 -27 -15 -45 -15 -18 0 -38 -7
-45 -15 -7 -8 -23 -15 -37 -15 -13 0 -31 -7 -39 -15 -9 -8 -24 -15 -33 -15
-10 0 -24 -7 -31 -15 -7 -8 -23 -15 -35 -15 -12 0 -28 -7 -35 -15 -7 -8 -21
-15 -31 -15 -9 0 -24 -7 -33 -15 -8 -8 -24 -15 -36 -15 -11 0 -23 -7 -26 -15
-4 -8 -14 -15 -24 -15 -11 0 -22 -5 -25 -11 -4 -5 -17 -15 -28 -20 -12 -5 -35
-18 -52 -29 -16 -11 -39 -24 -50 -30 -11 -6 -33 -19 -50 -30 -16 -11 -40 -24
-52 -30 -13 -5 -23 -14 -23 -20 0 -5 -5 -10 -10 -10 -6 0 -57 -47 -114 -105
-105 -106 -134 -123 -164 -93 -28 28 -12 60 76 152 56 58 235 195 297 226 11
6 34 19 50 29 44 28 243 125 345 169 19 8 48 21 63 28 16 8 36 14 46 14 9 0
26 6 37 14 18 13 43 18 106 24 9 1 28 -2 42 -8z m26 -109 c0 -11 -39 -25 -47
-18 -3 3 -2 10 2 16 8 13 45 15 45 2z m-43 -36 c3 -9 3 -18 1 -21 -9 -8 -58
18 -52 27 9 15 44 10 51 -6z"/>
<path d="M1797 3613 c-9 -8 -9 -526 -1 -548 17 -44 24 29 24 267 0 177 3 259
11 264 8 4 7 9 -2 15 -17 11 -24 11 -32 2z"/>
<path d="M1895 3610 c-18 -7 -19 -8 -2 -15 15 -7 17 -28 17 -249 0 -132 4
-247 9 -255 14 -22 28 -5 35 43 4 24 13 52 21 62 17 22 19 56 5 70 -8 8 -4 18
10 35 l21 24 -6 -28 c-6 -28 14 -103 44 -164 30 -63 36 -22 36 235 l0 247 -85
1 c-47 1 -94 -2 -105 -6z m125 -149 c0 -11 -5 -23 -10 -26 -6 -3 -7 -18 -4
-33 l5 -27 -20 24 c-20 22 -20 24 -4 52 20 34 33 37 33 10z"/>
<path d="M2189 3606 c-8 -8 2 -456 9 -456 10 0 37 93 49 165 15 87 9 239 -10
269 -16 23 -37 33 -48 22z"/>
<path d="M2330 3450 c0 -13 5 -20 13 -17 6 2 12 10 12 17 0 7 -6 15 -12 18 -8
2 -13 -5 -13 -18z"/>
<path d="M4470 3196 c0 -290 4 -506 9 -506 22 0 26 60 29 450 3 402 -4 540
-29 556 -5 3 -9 -199 -9 -500z"/>
<path d="M6610 3635 c-7 -8 -23 -15 -35 -15 -12 0 -28 -7 -35 -15 -7 -8 -23
-15 -35 -15 -12 0 -28 -7 -35 -15 -7 -8 -26 -15 -42 -15 -16 0 -31 -6 -34 -15
-4 -8 -17 -15 -29 -15 -13 0 -30 -7 -39 -15 -8 -8 -23 -15 -34 -15 -11 0 -25
-7 -32 -15 -7 -8 -23 -15 -35 -15 -12 0 -28 -6 -35 -14 -6 -8 -23 -16 -37 -18
-37 -4 -41 -26 -6 -30 25 -3 28 -8 31 -43 2 -22 7 -44 12 -49 12 -12 43 52 37
80 -5 30 18 39 48 16 17 -13 24 -30 29 -74 6 -62 29 -128 44 -128 15 0 24 66
21 169 -2 123 9 151 62 151 l38 0 3 -210 c3 -227 12 -267 43 -194 13 30 17 74
18 187 0 110 4 150 14 159 7 6 16 8 19 5 4 -4 7 -158 4 -287 0 -28 12 -95 20
-105 4 -5 11 -29 15 -52 3 -22 12 -49 19 -59 18 -25 27 109 26 400 0 127 2
241 6 254 5 17 2 22 -14 22 -11 0 -25 -7 -32 -15z"/>
<path d="M6059 3394 c-11 -14 -10 -15 11 -12 13 1 25 9 28 16 5 17 -23 15 -39
-4z"/>
<path d="M5458 3032 c-27 -57 -29 -89 -8 -137 5 -11 17 -38 26 -60 l17 -40 9
45 c10 48 2 230 -10 242 -4 4 -19 -19 -34 -50z"/>
<path d="M5610 2866 c0 -82 3 -107 13 -103 8 3 12 31 12 95 0 60 -4 95 -12
104 -10 10 -13 -10 -13 -96z"/>
<path d="M7810 2840 c-47 -3 -95 -11 -107 -17 -12 -7 -30 -13 -40 -13 -37 -1
-113 -92 -113 -136 0 -47 62 -134 95 -134 12 0 26 -5 32 -11 14 -14 75 -29
143 -35 30 -2 59 -9 64 -14 6 -6 38 -10 73 -10 48 0 63 -3 63 -14 0 -20 -72
-31 -100 -16 -27 14 -28 13 -35 -35 -8 -56 2 -67 50 -54 22 6 56 9 77 6 56 -7
70 8 59 63 -5 25 -12 53 -16 63 -5 12 -3 17 9 17 8 0 20 8 25 18 5 10 29 27
53 39 68 34 102 118 63 157 -8 8 -15 19 -15 24 0 5 -8 12 -17 16 -10 3 -31 15
-48 25 -89 58 -152 71 -315 61z m15 -90 c4 -6 15 -6 31 0 34 13 111 13 119 0
4 -6 4 -19 0 -28 -4 -9 -8 -28 -9 -41 -2 -35 -47 -65 -103 -66 -27 -1 -63 -5
-81 -9 -23 -6 -43 -3 -67 9 -30 14 -35 21 -35 51 0 24 5 37 18 41 9 3 24 12
32 18 13 11 64 32 82 34 4 1 9 -3 13 -9z m338 -43 c21 -37 21 -38 3 -69 -22
-36 -52 -68 -65 -68 -5 0 -11 -7 -15 -15 -3 -8 -14 -15 -24 -15 -10 0 -29 -9
-42 -20 -23 -20 -89 -27 -137 -14 -41 11 -26 31 28 38 28 4 58 11 67 15 10 4
34 16 55 26 50 25 81 68 79 113 -3 64 17 68 51 9z"/>
<path d="M3030 2675 c-14 -8 -37 -14 -52 -15 -35 0 -116 -55 -137 -92 -9 -15
-19 -28 -23 -28 -13 0 -9 -70 5 -87 45 -57 91 -89 149 -107 35 -11 74 -26 87
-34 15 -9 38 -12 63 -9 22 3 52 1 68 -4 20 -7 37 -6 61 5 l34 14 -67 1 c-59 1
-68 3 -68 20 0 14 10 19 49 24 56 7 155 50 187 81 33 33 51 92 35 117 -15 25
-9 33 18 24 12 -3 28 -23 37 -43 12 -30 13 -42 2 -67 -16 -41 -49 -85 -64 -85
-6 0 -17 -6 -23 -14 -7 -8 -28 -17 -47 -21 -45 -8 -40 -29 8 -33 22 -2 39 3
48 12 7 9 21 16 31 16 11 0 19 5 19 10 0 6 5 10 11 10 16 0 0 -43 -25 -62 -13
-11 -35 -17 -60 -15 -39 2 -40 1 -48 -37 -5 -22 -5 -43 -1 -47 5 -4 49 -2 98
5 l90 12 0 106 c0 58 3 110 8 114 11 11 9 72 -5 116 -10 34 -19 43 -67 65 -31
14 -90 34 -131 44 -93 23 -254 25 -290 4z m217 -90 c45 -22 53 -30 53 -54 0
-22 -10 -34 -49 -59 -27 -18 -55 -32 -62 -32 -8 0 -34 -9 -58 -20 l-44 -20
-43 25 c-23 14 -51 25 -61 25 -11 0 -27 6 -38 13 -29 22 -12 62 40 93 100 58
180 67 262 29z"/>
<path d="M7611 2466 c-7 -17 -11 -48 -9 -70 l3 -40 90 1 90 0 -3 43 c-2 25 -4
45 -5 47 -2 1 -22 -7 -45 -18 l-43 -21 -22 24 c-12 14 -27 34 -33 44 -11 18
-13 17 -23 -10z"/>
<path d="M4466 2393 c-4 -31 -3 -60 1 -64 4 -4 49 -4 98 0 l90 6 0 55 c0 49
-2 55 -22 58 -14 2 -30 -6 -44 -22 l-22 -26 -43 25 c-23 14 -45 25 -47 25 -2
0 -7 -26 -11 -57z"/>
<path d="M3167 2247 c-37 -21 -39 -21 -69 -4 -23 13 -33 15 -39 6 -10 -16 -21
-90 -14 -97 3 -3 31 0 63 7 31 7 72 15 90 18 34 5 39 21 26 71 -8 27 -10 27
-57 -1z"/>
<path d="M4645 2260 c-16 -5 -46 -13 -65 -18 -105 -29 -187 -106 -218 -207
-27 -83 -27 -94 -3 -169 21 -68 88 -151 142 -177 97 -47 114 -51 205 -46 49 2
107 11 128 19 77 30 166 143 166 211 0 32 -6 35 -51 30 -29 -4 -39 -11 -53
-39 -9 -19 -16 -40 -16 -47 0 -15 -34 -46 -77 -69 -65 -35 -170 -16 -203 36
-37 59 -50 191 -27 277 26 99 128 148 210 102 56 -32 87 -75 96 -133 6 -32 9
-35 45 -38 21 -2 42 0 46 5 5 4 5 67 2 138 l-7 130 -30 3 c-22 3 -35 -3 -50
-22 l-21 -26 -53 20 c-66 24 -127 31 -166 20z"/>
<path d="M6224 2263 c-6 -5 -14 -20 -17 -35 -8 -31 13 -58 46 -58 12 0 32 -8
44 -18 19 -15 22 -29 25 -114 4 -123 -5 -135 -58 -71 -21 27 -93 102 -159 169
l-121 120 -119 0 c-130 -1 -135 -4 -121 -62 5 -20 12 -24 45 -24 61 0 64 -8
62 -206 -1 -96 -4 -181 -7 -189 -3 -7 -20 -18 -37 -25 -55 -20 -62 -26 -62
-56 l0 -29 150 -5 c87 -3 155 -2 163 4 8 5 12 24 10 45 -3 35 -4 36 -50 41
-26 3 -51 9 -55 14 -4 4 -11 56 -15 114 -3 59 -9 121 -13 138 -12 55 12 48 77
-22 50 -53 193 -203 307 -321 8 -9 29 -13 55 -11 l41 3 -4 233 c-4 232 -4 233
19 257 13 14 34 25 47 25 20 0 23 5 23 40 l0 40 -104 0 c-57 0 -116 2 -132 5
-16 3 -34 2 -40 -2z"/>
<path d="M6815 2260 l-280 -5 -7 -105 c-3 -58 -8 -114 -10 -125 -3 -18 3 -20
47 -20 l50 0 3 38 c6 70 68 141 118 135 l26 -3 1 -208 c2 -233 5 -225 -72
-212 -37 6 -39 5 -46 -24 -15 -67 -16 -67 197 -64 106 2 201 3 211 3 15 0 18
7 15 43 l-3 42 -52 0 c-28 0 -54 2 -56 5 -3 3 -7 98 -8 210 l-1 205 28 3 c43
4 88 -44 110 -118 l18 -60 43 0 43 0 0 42 c0 23 -7 69 -15 102 -8 34 -16 75
-17 91 -4 36 34 33 -343 25z"/>
<path d="M7193 2254 c-2 -7 -3 -25 -1 -41 3 -26 6 -28 58 -33 l55 -5 -2 -204
c-2 -152 -6 -206 -15 -212 -7 -4 -32 -5 -56 -2 l-43 6 3 -48 3 -47 324 1 c179
1 328 4 333 7 4 3 8 34 8 69 0 35 5 87 11 115 13 60 2 80 -42 80 -36 0 -55
-20 -62 -67 -9 -56 -68 -113 -116 -114 -20 0 -62 -2 -93 -4 -34 -3 -60 0 -64
6 -4 6 -7 48 -8 93 -1 79 -1 81 24 84 37 3 72 -29 79 -74 6 -38 8 -39 46 -39
l40 0 0 145 0 145 -40 0 c-38 0 -40 -1 -47 -41 -7 -35 -14 -43 -49 -58 -53
-23 -57 -17 -54 82 l2 77 95 3 c116 3 139 -10 164 -94 8 -30 18 -54 22 -55 4
-1 23 -2 42 -2 l35 -2 -1 55 c-1 30 -6 84 -10 120 l-9 65 -313 1 c-244 1 -315
-2 -319 -12z"/>
<path d="M7918 2236 c-6 -51 -1 -56 58 -56 l54 0 0 -209 0 -210 -52 -3 -53 -3
0 -40 0 -40 198 -3 198 -2 -3 42 -3 43 -52 3 -52 3 -3 82 c-4 95 4 112 51 102
36 -8 66 -51 76 -112 4 -24 11 -45 16 -49 5 -3 9 -15 9 -26 0 -11 16 -36 36
-54 32 -31 41 -34 95 -34 74 0 119 29 149 98 31 70 28 82 -24 82 -41 0 -44 -2
-50 -32 l-6 -31 -25 23 c-14 13 -25 32 -25 43 0 27 -31 76 -53 83 -29 9 -16
36 30 58 72 37 83 52 83 116 0 52 -3 60 -33 90 -61 59 -85 64 -363 67 l-252 4
-4 -35z m413 -56 c20 0 49 -47 49 -79 0 -11 -10 -31 -22 -46 -18 -20 -36 -26
-85 -32 -50 -5 -63 -3 -64 8 -2 41 3 145 8 152 3 5 26 7 51 3 25 -3 53 -6 63
-6z"/>
<path d="M5629 2255 c-3 -2 -138 -6 -300 -8 l-294 -2 0 -40 0 -40 41 3 c25 2
45 -2 52 -10 12 -15 20 -403 8 -415 -4 -4 -28 -7 -54 -8 l-47 0 0 -45 0 -45
35 3 c19 1 167 5 328 8 l292 6 0 43 c0 24 7 79 15 122 8 43 15 79 15 80 0 1
-15 5 -34 8 -48 10 -72 -7 -80 -54 -9 -56 -47 -98 -109 -116 -53 -16 -153 -20
-160 -7 -3 4 -6 45 -8 92 l-4 85 27 3 c43 5 67 -14 74 -59 8 -46 40 -67 75
-49 17 10 19 22 19 136 0 134 -8 164 -43 164 -32 0 -44 -11 -51 -46 -8 -37
-30 -60 -68 -69 -34 -9 -39 8 -30 104 l7 75 55 1 c74 3 134 -12 159 -39 12
-12 29 -47 39 -77 19 -53 20 -54 58 -54 l39 0 -1 45 c-3 146 -27 234 -55 205z"/>
<path d="M3647 2150 c-27 -5 -62 -13 -79 -19 -17 -6 -47 -11 -67 -11 -20 0
-52 -5 -71 -10 -19 -6 -66 -15 -105 -20 -38 -5 -88 -14 -110 -19 -47 -12 -148
-31 -190 -37 -16 -3 -55 -12 -85 -20 -30 -9 -79 -22 -108 -30 -28 -7 -76 -20
-105 -28 -28 -8 -63 -17 -77 -20 -24 -4 -38 -8 -120 -36 -19 -7 -51 -16 -70
-20 -19 -4 -51 -13 -70 -20 -19 -7 -48 -16 -65 -22 -16 -6 -43 -13 -60 -16
-16 -2 -39 -11 -50 -18 -11 -8 -29 -14 -40 -14 -12 0 -30 -7 -41 -15 -10 -8
-28 -15 -40 -15 -11 0 -29 -7 -40 -15 -10 -8 -28 -15 -40 -15 -11 0 -29 -7
-40 -15 -10 -8 -28 -15 -40 -15 -11 0 -29 -7 -40 -15 -10 -8 -29 -15 -40 -15
-12 0 -27 -7 -34 -15 -7 -8 -18 -15 -26 -15 -7 0 -30 -7 -51 -16 -21 -9 -51
-23 -68 -30 -63 -27 -171 -76 -185 -85 -8 -5 -22 -12 -30 -15 -32 -13 -146
-66 -160 -75 -8 -5 -22 -12 -30 -15 -8 -3 -22 -10 -30 -15 -8 -5 -37 -20 -65
-35 -139 -72 -195 -115 -195 -150 0 -29 -41 -61 -88 -70 -71 -13 -174 -90
-274 -204 -22 -25 -73 -104 -83 -130 -4 -8 -13 -30 -21 -48 -8 -19 -14 -65
-14 -109 0 -66 3 -80 26 -110 22 -30 30 -33 75 -33 28 0 63 6 77 14 15 8 34
17 42 20 8 4 29 15 45 26 17 11 39 24 50 30 11 6 32 18 46 28 15 9 57 35 94
56 66 38 68 39 82 20 24 -32 3 -110 -47 -178 -60 -81 -204 -186 -255 -186 -32
0 -80 28 -94 53 -19 36 -43 34 -80 -8 -35 -41 -36 -43 -16 -69 8 -11 15 -34
15 -50 0 -17 7 -53 15 -80 8 -27 15 -66 15 -88 0 -21 4 -38 8 -38 12 0 82 71
82 84 0 6 7 29 16 53 15 38 21 43 73 59 31 9 63 23 72 31 8 7 21 13 27 13 6 0
51 39 101 86 84 80 135 145 174 222 10 17 24 45 32 61 10 19 15 58 15 113 0
90 -8 106 -67 137 -31 16 -127 -8 -194 -48 -19 -12 -45 -25 -58 -31 -13 -6
-38 -21 -55 -33 -42 -30 -66 -45 -98 -59 -16 -7 -28 -16 -28 -20 0 -4 -9 -8
-20 -8 -46 0 -42 76 7 154 29 46 131 146 149 146 6 0 17 7 24 15 8 10 31 15
67 15 50 0 57 -3 86 -35 17 -19 37 -35 45 -35 7 0 36 23 64 50 28 27 56 50 63
50 9 0 15 19 18 58 6 81 26 127 74 178 60 65 103 54 103 -26 0 -17 7 -47 15
-67 8 -19 15 -47 15 -62 0 -14 6 -46 14 -71 8 -25 21 -69 31 -98 20 -64 16
-71 -61 -106 -55 -25 -65 -45 -48 -90 11 -28 22 -24 154 54 20 12 156 78 195
95 91 39 107 45 121 45 12 0 14 10 12 43 -3 38 -6 42 -30 45 -16 2 -28 -1 -28
-6 0 -6 -13 -15 -30 -21 -16 -5 -30 -15 -30 -20 0 -6 -6 -11 -13 -11 -15 0
-47 102 -47 150 0 17 -7 47 -15 67 -8 19 -15 48 -15 64 0 15 -5 40 -11 56 -21
52 -28 96 -18 115 12 22 82 41 125 34 33 -7 75 -50 88 -93 9 -28 35 -37 56
-18 9 8 24 15 32 15 24 0 29 26 14 63 -24 55 -39 115 -33 130 6 15 64 33 74
23 8 -7 22 -78 33 -164 5 -40 12 -77 15 -83 11 -17 26 -141 20 -161 -4 -10
-16 -18 -28 -18 -12 0 -36 -9 -53 -19 -25 -15 -31 -24 -27 -45 9 -43 23 -46
83 -19 30 14 69 31 85 38 17 7 47 20 68 29 21 9 46 16 55 16 10 0 26 6 37 14
11 7 34 16 50 18 17 3 46 11 65 18 19 7 51 18 70 25 19 7 51 18 70 25 19 6 51
16 70 20 19 4 51 13 70 20 19 7 49 16 65 22 17 6 48 13 70 17 22 4 50 13 62
19 12 7 35 12 51 12 16 0 46 7 65 15 20 8 50 15 67 15 17 0 41 5 52 11 11 6
44 15 72 19 28 5 69 13 91 19 62 15 154 32 225 42 36 4 81 13 100 19 19 5 62
10 95 10 33 1 87 7 120 15 33 8 97 15 143 15 l83 0 15 35 c7 19 14 53 14 75 0
22 7 57 15 77 8 19 15 46 15 59 0 21 -5 24 -41 24 -47 0 -79 -14 -79 -36 0
-39 -68 -123 -127 -156 -17 -10 -47 -18 -67 -18 -19 0 -56 -7 -82 -16 -25 -8
-50 -12 -54 -7 -4 4 -5 106 -2 225 l4 217 57 7 c74 9 91 19 91 53 0 26 -17 44
-38 40 -4 -1 -29 -5 -55 -9z m-275 -265 c3 -77 9 -166 13 -197 10 -82 2 -108
-35 -108 -36 0 -38 18 -15 98 17 57 14 72 -16 72 -43 0 -77 -28 -84 -69 -16
-93 -116 -156 -301 -187 l-31 -6 -6 89 c-7 99 0 113 57 113 41 -1 66 -21 66
-54 0 -33 18 -41 67 -29 l38 9 -4 134 c-2 74 -7 140 -12 146 -7 9 -19 8 -47
-1 -28 -10 -38 -19 -40 -38 -2 -14 -18 -42 -35 -62 -27 -31 -40 -38 -72 -39
l-40 -1 -3 75 c-3 67 -1 77 19 93 11 9 37 17 55 17 19 0 51 7 71 15 82 34 174
7 188 -57 10 -41 28 -55 68 -50 44 5 47 13 36 82 -13 77 -5 102 29 98 l27 -3
7 -140z m-710 -137 c3 -59 12 -124 18 -144 7 -20 13 -69 14 -108 1 -70 1 -71
-26 -74 l-27 -3 -3 78 -3 78 -31 3 c-40 4 -64 -19 -64 -63 0 -19 -9 -50 -21
-69 -20 -35 -106 -106 -128 -106 -5 0 -26 -7 -46 -15 -19 -8 -51 -22 -70 -30
-51 -21 -65 -12 -65 44 0 25 -4 61 -9 79 -13 43 13 72 62 72 38 0 63 -22 69
-60 4 -33 30 -36 74 -10 25 16 33 27 28 39 -3 9 -10 62 -15 119 -4 57 -13 109
-19 117 -8 9 -22 12 -43 8 -45 -8 -57 -21 -57 -58 0 -25 -9 -41 -40 -69 -49
-44 -77 -47 -85 -8 -3 15 -10 49 -16 75 -10 43 -9 50 7 63 11 7 30 16 44 20
14 3 41 11 60 19 129 49 187 41 223 -31 18 -38 25 -44 52 -44 56 0 69 38 40
121 -15 41 -15 45 2 57 10 7 29 12 43 10 24 -3 25 -5 32 -110z"/>
</g>
</svg>
