<svg width="24" height="24" viewBox="0 0 24 24" xmlns="http://www.w3.org/2000/svg" fill="currentColor">
    <path d="M24 10.304c0-5.369-5.383-9.732-12-9.732S0 4.935 0 10.304c0 4.802 4.269 8.818 10.036 9.578.391.083.923.255 1.058.589.12.301.08 1.645-.005 2.298-.024.19-.114.74.325 1.014.436.272 2.724-1.655 3.765-2.832 1.414-1.597 5.351-4.343 6.434-4.343 3.495.002 2.387-6.298 2.387-6.304zM8.313 13.544H5.085c-.413 0-.748-.335-.748-.748V7.804c0-.413.335-.748.748-.748s.748.335.748.748v4.245h2.48c.413 0 .748.335.748.748s-.335.747-.748.747zm3.776 0c-.413 0-.748-.335-.748-.748V7.804c0-.413.335-.748.748-.748s.748.335.748.748v4.992c0 .413-.335.748-.748.748zm5.194 0h-.242c-.135 0-.26-.054-.354-.141l-3.219-3.578v2.971c0 .413-.335.748-.748.748s-.748-.335-.748-.748V7.804c0-.413.335-.748.748-.748h.243c.135 0 .259.054.353.141l3.219 3.578V7.804c0-.413.335-.748.748-.748s.748.335.748.748v4.992c0 .413-.335.748-.748.748zm4.682-.748c0 .413-.335.748-.748.748h-3.472c-.413 0-.748-.335-.748-.748V7.804c0-.413.335-.748.748-.748.413 0 .748.335.748.748v1.242h1.976c.413 0 .748.335.748.748s-.335.748-.748.748h-1.976v1.503h2.724c.413 0 .748.335.748.748z"/>
</svg>
